<?xml version="1.0" standalone="no"?>
<!DOCTYPE svg PUBLIC "-//W3C//DTD SVG 20010904//EN"
 "http://www.w3.org/TR/2001/REC-SVG-20010904/DTD/svg10.dtd">
<svg version="1.0" xmlns="http://www.w3.org/2000/svg"
 width="891.000000pt" height="894.000000pt" viewBox="0 0 891.000000 894.000000"
 preserveAspectRatio="xMidYMid meet">

<g transform="translate(0.000000,894.000000) scale(0.100000,-0.100000)"
fill="#000000" stroke="none">
<path d="M2644 8566 c-382 -144 -600 -280 -845 -525 -311 -312 -469 -673 -509
-1159 -25 -308 55 -695 197 -952 83 -149 157 -246 282 -370 142 -140 228 -204
387 -284 251 -127 506 -195 833 -222 l84 -7 -7 -231 c-14 -473 -45 -1105 -62
-1266 l-6 -55 52 -50 51 -50 62 24 c34 13 163 60 286 105 l224 80 -7 84 c-23
304 -46 872 -46 1150 l0 204 33 -7 c60 -13 152 -62 191 -101 21 -21 50 -64 65
-94 l26 -55 -1 -255 c0 -151 -8 -345 -18 -475 -24 -293 -25 -623 -2 -775 68
-451 204 -741 469 -1002 238 -233 581 -375 1010 -417 48 -5 89 -10 91 -12 12
-16 -66 -972 -104 -1274 l-29 -230 42 -43 c23 -24 51 -45 62 -48 11 -3 63 12
115 32 52 20 174 65 270 100 162 58 175 64 173 86 -38 393 -65 780 -78 1113
-3 83 -8 178 -11 212 l-5 62 48 6 c88 12 277 62 358 94 169 68 313 158 482
303 211 181 359 378 518 689 184 361 296 788 325 1242 23 350 -43 796 -161
1097 l-50 125 -75 26 -75 26 -150 -93 c-120 -75 -358 -232 -378 -250 -3 -3 21
-30 52 -62 174 -176 272 -417 337 -832 19 -121 23 -312 10 -470 -37 -465 -212
-877 -496 -1165 -130 -132 -262 -222 -407 -276 -84 -31 -254 -69 -310 -69
l-35 0 -7 318 c-12 497 7 1634 40 2372 26 586 86 1409 125 1725 18 143 16 157
-34 212 l-44 48 -118 -38 c-66 -22 -199 -70 -296 -109 -139 -54 -178 -74 -178
-88 0 -10 7 -80 15 -156 40 -386 86 -1114 106 -1694 16 -450 16 -1658 0 -2165
-7 -225 -14 -411 -15 -412 -6 -6 -212 42 -287 67 -290 97 -529 312 -644 579
-86 203 -123 373 -137 636 -11 199 1 682 22 950 5 61 9 227 9 370 0 207 -3
281 -18 363 -13 73 -15 105 -7 111 6 5 58 41 116 79 416 278 701 714 799 1222
47 245 58 570 27 750 -77 440 -286 808 -586 1032 -172 128 -334 181 -555 182
-260 0 -452 -76 -638 -253 -208 -200 -340 -453 -411 -790 -54 -256 -73 -456
-81 -876 -8 -468 -27 -1260 -30 -1263 -5 -6 -200 38 -265 59 -149 49 -325 154
-464 277 -359 318 -550 861 -480 1363 36 261 110 474 231 662 165 258 358 431
656 587 64 34 117 65 117 69 0 14 -37 117 -54 149 -9 18 -22 32 -29 32 -6 -1
-75 -25 -153 -54z m1546 -397 c280 -60 583 -437 699 -869 58 -216 62 -554 10
-800 -72 -338 -192 -547 -442 -769 -109 -96 -302 -193 -503 -252 -84 -24 -266
-59 -310 -59 l-31 0 -7 193 c-13 429 -18 1671 -7 1827 20 272 48 420 102 539
42 93 71 126 142 160 97 48 213 58 347 30z"/>
</g>
</svg>
